<svg data-v-423bf9ae="" xmlns="http://www.w3.org/2000/svg" viewBox="0 0 431 90" class="iconLeft"><!----><!----><!----><g data-v-423bf9ae="" id="dcf1c3c4-ac9a-43e4-a2d4-8cf6c8c9210c" fill="#C3C3C3" transform="matrix(4.647560085914902,0,0,4.647560085914902,104.69416950788096,1.0108439473001525)"><path d="M1.12 13.51L1.12 3.71L4.30 3.71L4.30 3.71Q5.89 3.71 6.79 4.45L6.79 4.45L6.79 4.45Q7.69 5.18 7.69 6.69L7.69 6.69L7.69 6.69Q7.69 8.65 5.98 9.45L5.98 9.45L8.18 13.51L6.55 13.51L4.56 9.69L4.49 9.69L2.52 9.69L2.52 13.51L1.12 13.51ZM2.52 8.50L4.28 8.50L4.28 8.50Q5.26 8.50 5.78 8.02L5.78 8.02L5.78 8.02Q6.30 7.55 6.30 6.69L6.30 6.69L6.30 6.69Q6.30 5.84 5.79 5.37L5.79 5.37L5.79 5.37Q5.28 4.90 4.28 4.90L4.28 4.90L2.52 4.90L2.52 8.50ZM8.34 15.92L8.16 14.77L8.16 14.77Q8.92 14.77 9.24 14.45L9.24 14.45L9.24 14.45Q9.56 14.13 9.56 13.40L9.56 13.40L9.56 3.71L10.89 3.71L10.89 13.71L10.89 13.71Q10.89 14.85 10.35 15.39L10.35 15.39L10.35 15.39Q9.81 15.92 8.71 15.92L8.71 15.92L8.34 15.92ZM13.13 13.51L13.13 3.71L16.76 3.71L16.76 3.71Q18.19 3.71 19.29 4.29L19.29 4.29L19.29 4.29Q20.40 4.87 21.01 5.98L21.01 5.98L21.01 5.98Q21.63 7.10 21.63 8.61L21.63 8.61L21.63 8.61Q21.63 10.12 21.01 11.23L21.01 11.23L21.01 11.23Q20.40 12.35 19.29 12.93L19.29 12.93L19.29 12.93Q18.19 13.51 16.76 13.51L16.76 13.51L13.13 13.51ZM14.46 12.31L16.76 12.31L16.76 12.31Q18.40 12.31 19.29 11.30L19.29 11.30L19.29 11.30Q20.17 10.30 20.17 8.61L20.17 8.61L20.17 8.61Q20.17 6.92 19.29 5.92L19.29 5.92L19.29 5.92Q18.40 4.91 16.76 4.91L16.76 4.91L14.46 4.91L14.46 12.31ZM26.33 13.65L26.33 13.65Q25.16 13.65 24.33 13.17L24.33 13.17L24.33 13.17Q23.49 12.68 23.06 11.86L23.06 11.86L23.06 11.86Q22.62 11.03 22.62 10.02L22.62 10.02L22.62 10.02Q22.62 9.06 23.02 8.25L23.02 8.25L23.02 8.25Q23.42 7.45 24.19 6.98L24.19 6.98L24.19 6.98Q24.95 6.51 25.98 6.51L25.98 6.51L25.98 6.51Q27.30 6.51 28.12 7.28L28.12 7.28L28.12 7.28Q28.94 8.05 28.94 9.41L28.94 9.41L28.94 9.41Q28.94 9.76 28.88 10.08L28.88 10.08L23.91 10.08L23.91 10.08Q24.04 11.41 24.72 11.97L24.72 11.97L24.72 11.97Q25.41 12.53 26.49 12.53L26.49 12.53L26.49 12.53Q27.57 12.53 28.46 12.12L28.46 12.12L28.63 13.12L28.63 13.12Q27.44 13.65 26.33 13.65L26.33 13.65ZM24.02 9.21L27.64 9.21L27.64 9.21Q27.64 8.47 27.22 8.05L27.22 8.05L27.22 8.05Q26.80 7.63 25.96 7.63L25.96 7.63L25.96 7.63Q25.14 7.63 24.68 8.03L24.68 8.03L24.68 8.03Q24.22 8.43 24.02 9.21L24.02 9.21ZM32.10 13.51L29.48 6.65L30.88 6.65L32.80 12.12L34.71 6.65L36.12 6.65L33.52 13.51L32.10 13.51ZM38.47 13.51L36.41 6.65L37.90 6.65L39.21 12.12L40.67 6.86L41.97 6.86L43.44 12.12L44.76 6.65L46.24 6.65L44.17 13.51L42.76 13.51L41.33 8.44L39.89 13.51L38.47 13.51ZM50.25 13.65L50.25 13.65Q49.20 13.65 48.43 13.18L48.43 13.18L48.43 13.18Q47.66 12.71 47.25 11.90L47.25 11.90L47.25 11.90Q46.84 11.09 46.84 10.08L46.84 10.08L46.84 10.08Q46.84 9.07 47.25 8.26L47.25 8.26L47.25 8.26Q47.66 7.45 48.43 6.98L48.43 6.98L48.43 6.98Q49.20 6.51 50.25 6.51L50.25 6.51L50.25 6.51Q51.28 6.51 52.06 6.98L52.06 6.98L52.06 6.98Q52.84 7.45 53.24 8.26L53.24 8.26L53.24 8.26Q53.65 9.07 53.65 10.08L53.65 10.08L53.65 10.08Q53.65 11.09 53.24 11.90L53.24 11.90L53.24 11.90Q52.84 12.71 52.06 13.18L52.06 13.18L52.06 13.18Q51.28 13.65 50.25 13.65L50.25 13.65ZM50.25 12.53L50.25 12.53Q51.25 12.53 51.81 11.89L51.81 11.89L51.81 11.89Q52.36 11.24 52.36 10.08L52.36 10.08L52.36 10.08Q52.36 8.92 51.81 8.27L51.81 8.27L51.81 8.27Q51.25 7.63 50.25 7.63L50.25 7.63L50.25 7.63Q49.24 7.63 48.69 8.27L48.69 8.27L48.69 8.27Q48.13 8.92 48.13 10.08L48.13 10.08L48.13 10.08Q48.13 11.24 48.69 11.89L48.69 11.89L48.69 11.89Q49.24 12.53 50.25 12.53L50.25 12.53ZM54.95 13.51L54.95 6.65L55.99 6.65L56.14 7.78L56.14 7.78Q56.67 7.13 57.16 6.82L57.16 6.82L57.16 6.82Q57.64 6.51 58.17 6.51L58.17 6.51L58.17 6.51Q58.34 6.51 58.49 6.55L58.49 6.55L58.37 7.94L58.37 7.94Q58.18 7.90 57.95 7.90L57.95 7.90L57.95 7.90Q57.43 7.90 56.97 8.13L56.97 8.13L56.97 8.13Q56.50 8.36 56.29 8.67L56.29 8.67L56.29 13.51L54.95 13.51ZM59.36 13.51L59.36 3.01L60.62 3.01L60.62 9.74L63.14 6.65L64.68 6.65L61.95 9.84L64.75 13.51L63.21 13.51L60.62 10.02L60.62 13.51L59.36 13.51ZM67.59 13.65L67.59 13.65Q66.78 13.65 66.17 13.46L66.17 13.46L66.17 13.46Q65.56 13.27 65.24 13.05L65.24 13.05L65.39 11.83L65.39 11.83Q65.67 12.08 66.25 12.31L66.25 12.31L66.25 12.31Q66.84 12.53 67.54 12.53L67.54 12.53L67.54 12.53Q68.19 12.53 68.55 12.31L68.55 12.31L68.55 12.31Q68.91 12.08 68.91 11.68L68.91 11.68L68.91 11.68Q68.91 11.20 68.52 10.96L68.52 10.96L68.52 10.96Q68.12 10.71 67.54 10.54L67.54 10.54L67.54 10.54Q66.89 10.37 66.45 10.18L66.45 10.18L66.45 10.18Q66.01 10.00 65.70 9.60L65.70 9.60L65.70 9.60Q65.38 9.21 65.38 8.57L65.38 8.57L65.38 8.57Q65.38 7.69 66.01 7.10L66.01 7.10L66.01 7.10Q66.64 6.51 67.96 6.51L67.96 6.51L67.96 6.51Q68.56 6.51 68.98 6.63L68.98 6.63L68.98 6.63Q69.40 6.75 69.82 6.96L69.82 6.96L69.66 8.11L69.66 8.11Q69.33 7.83 68.92 7.67L68.92 7.67L68.92 7.67Q68.52 7.50 67.98 7.50L67.98 7.50L67.98 7.50Q67.37 7.50 67.01 7.73L67.01 7.73L67.01 7.73Q66.65 7.97 66.65 8.43L66.65 8.43L66.65 8.43Q66.65 8.74 66.82 8.93L66.82 8.93L66.82 8.93Q66.99 9.11 67.30 9.24L67.30 9.24L67.30 9.24Q67.61 9.37 68.25 9.56L68.25 9.56L68.25 9.56Q69.05 9.80 69.63 10.23L69.63 10.23L69.63 10.23Q70.21 10.67 70.21 11.61L70.21 11.61L70.21 11.61Q70.21 12.45 69.62 13.05L69.62 13.05L69.62 13.05Q69.02 13.65 67.59 13.65L67.59 13.65Z"></path></g><!----><g data-v-423bf9ae="" id="5f7d8f78-32e2-4b1c-a88c-3b1de65d5880" transform="matrix(1.005586592178771,0,0,1.005586592178771,-1.965643216777785,-5.0293296089385535)" stroke="none" fill="#5386E4"><path d="M30.8 43.6l10.3-10.3c5.5 2.6 12.2 1.8 16.7-2.8 5.8-5.8 5.8-15.1 0-20.9-5.8-5.8-15.1-5.8-20.9 0-4.5 4.5-5.4 11.2-2.8 16.7L23.9 36.6c-5.5-2.6-12.2-1.8-16.7 2.8-5.8 5.8-5.8 15.1 0 20.9 5.8 5.8 15.1 5.8 20.9 0 4.5-4.5 5.3-11.2 2.7-16.7zm-9.7 9.7c-1.9 1.9-5 1.9-7 0-1.9-1.9-1.9-5 0-7 1.9-1.9 5-1.9 7 0 1.9 2 1.9 5.1 0 7zM66.9 39.7c-4.5 4.5-5.4 11.2-2.8 16.7L53.9 66.7c-5.5-2.6-12.2-1.8-16.7 2.8-5.8 5.8-5.8 15.1 0 20.9 5.8 5.8 15.1 5.8 20.9 0 4.5-4.5 5.4-11.2 2.8-16.7l10.3-10.3c5.5 2.6 12.2 1.8 16.7-2.8 5.8-5.8 5.8-15.1 0-20.9-5.8-5.8-15.2-5.8-21 0zm14 13.9c-1.9 1.9-5 1.9-7 0-1.9-1.9-1.9-5 0-7 1.9-1.9 5-1.9 7 0 1.9 2 1.9 5.1 0 7z"></path></g><!----></svg>