<svg data-v-423bf9ae="" xmlns="http://www.w3.org/2000/svg" viewBox="0 0 282 90" class="iconLeft"><!----><!----><!----><g data-v-423bf9ae="" id="a90009c0-6da9-4400-abcb-a3ad7da09b7e" fill="black" transform="matrix(4.658385051777184,0,0,4.658385051777184,117.70750501701195,1.9565204082229428)"><path d="M0.98 2.80L0.98 12.60L2.52 12.60L2.52 8.82L3.50 8.82L6.09 12.60L7.91 12.60L5.19 8.64C5.84 8.44 6.35 8.09 6.74 7.59C7.13 7.10 7.32 6.50 7.32 5.81C7.32 4.91 7.01 4.19 6.38 3.63C5.75 3.08 4.95 2.80 3.99 2.80ZM2.52 4.20L3.99 4.20C4.55 4.20 4.99 4.34 5.31 4.61C5.62 4.89 5.78 5.29 5.78 5.81C5.78 6.33 5.62 6.73 5.31 7.01C4.99 7.28 4.55 7.42 3.99 7.42L2.52 7.42ZM6.97 13.64L6.29 14.91C6.42 15.09 6.66 15.26 7.01 15.43C7.36 15.60 7.76 15.68 8.22 15.68C9.74 15.68 10.50 14.93 10.50 13.44L10.50 2.80L9.03 2.80L9.03 13.02C9.03 13.45 8.94 13.77 8.77 13.97C8.60 14.18 8.39 14.28 8.15 14.28C7.91 14.28 7.67 14.21 7.46 14.08C7.24 13.95 7.07 13.80 6.97 13.64ZM12.46 2.80L12.46 12.60L15.75 12.60C17.24 12.60 18.45 12.15 19.36 11.25C20.27 10.35 20.72 9.17 20.72 7.70C20.72 6.23 20.27 5.05 19.36 4.15C18.45 3.25 17.24 2.80 15.75 2.80ZM14 4.20L15.75 4.20C16.80 4.20 17.64 4.50 18.26 5.11C18.87 5.72 19.18 6.58 19.18 7.70C19.18 8.82 18.87 9.68 18.26 10.29C17.64 10.90 16.80 11.20 15.75 11.20L14 11.20ZM26.64 8.69L23.09 8.69C23.15 8.26 23.36 7.92 23.72 7.66C24.08 7.41 24.50 7.28 24.96 7.28C25.95 7.28 26.51 7.75 26.64 8.69ZM23.06 9.73L28.18 9.73C28.20 9.61 28.21 9.45 28.21 9.25C28.21 8.25 27.92 7.45 27.33 6.88C26.74 6.31 25.95 6.02 24.96 6.02C23.95 6.02 23.14 6.33 22.50 6.96C21.88 7.59 21.56 8.40 21.56 9.38C21.56 10.38 21.86 11.19 22.46 11.81C23.07 12.43 23.90 12.74 24.96 12.74C26.37 12.74 27.40 12.24 28.06 11.24L26.95 10.56C26.60 11.13 25.93 11.41 24.96 11.41C24.45 11.41 24.02 11.27 23.67 10.98C23.33 10.69 23.12 10.27 23.06 9.73ZM28.56 6.16L31.85 12.95L35.14 6.16L33.53 6.16L31.85 10.00L30.17 6.16Z"></path></g><!----><g data-v-423bf9ae="" id="3b8489ef-cb01-4a5a-9d61-478a626e9637" transform="matrix(1.0227272727272727,0,0,1.0227272727272727,0.8636363636363669,-6.136363636363633)" stroke="none" fill="black"><path d="M41.751 59.098v6.119L20 55.789v-5.232l21.751-9.427v6.162l-15.156 5.839 15.156 5.967zM55.2 41l-6.055 24.93a30.668 30.668 0 0 1-.529 1.946c-.151.476-.382.849-.691 1.112-.31.268-.761.4-1.352.4-1.47 0-2.206-.636-2.206-1.902 0-.332.145-1.16.433-2.486l6.033-24.93c.317-1.326.619-2.234.907-2.724.289-.49.851-.735 1.688-.735.721 0 1.271.173 1.653.519.382.346.573.822.573 1.427 0 .447-.152 1.261-.454 2.443zM80 55.789L58.249 65.26v-6.119l15.2-5.967-15.2-5.882v-6.076L80 50.6v5.189z"></path><path d="M94 6H6a6 6 0 0 0-6 6v76a6 6 0 0 0 6 6h88a6 6 0 0 0 6-6V12a6 6 0 0 0-6-6zm-15 4c2.205 0 4 1.794 4 4s-1.795 4-4 4-4-1.794-4-4 1.795-4 4-4zm-11 0c2.205 0 4 1.794 4 4s-1.795 4-4 4-4-1.794-4-4 1.795-4 4-4zm26 78H6V22h88v66zm-4-70c-2.205 0-4-1.794-4-4s1.795-4 4-4 4 1.794 4 4-1.795 4-4 4z"></path></g><!----></svg>