<svg data-v-423bf9ae="" xmlns="http://www.w3.org/2000/svg" viewBox="0 0 159.13043265789545 60" class="font"><!----><!----><!----><g data-v-423bf9ae="" id="a9ae9ec9-c223-44ed-837c-48212e5e5a89" fill="white" transform="matrix(4.658385051777184,0,0,4.658385051777184,-4.565219134599374,-13.043477684428424)"><path d="M0.98 2.80L0.98 12.60L2.52 12.60L2.52 8.82L3.50 8.82L6.09 12.60L7.91 12.60L5.19 8.64C5.84 8.44 6.35 8.09 6.74 7.59C7.13 7.10 7.32 6.50 7.32 5.81C7.32 4.91 7.01 4.19 6.38 3.63C5.75 3.08 4.95 2.80 3.99 2.80ZM2.52 4.20L3.99 4.20C4.55 4.20 4.99 4.34 5.31 4.61C5.62 4.89 5.78 5.29 5.78 5.81C5.78 6.33 5.62 6.73 5.31 7.01C4.99 7.28 4.55 7.42 3.99 7.42L2.52 7.42ZM6.97 13.64L6.29 14.91C6.42 15.09 6.66 15.26 7.01 15.43C7.36 15.60 7.76 15.68 8.22 15.68C9.74 15.68 10.50 14.93 10.50 13.44L10.50 2.80L9.03 2.80L9.03 13.02C9.03 13.45 8.94 13.77 8.77 13.97C8.60 14.18 8.39 14.28 8.15 14.28C7.91 14.28 7.67 14.21 7.46 14.08C7.24 13.95 7.07 13.80 6.97 13.64ZM12.46 2.80L12.46 12.60L15.75 12.60C17.24 12.60 18.45 12.15 19.36 11.25C20.27 10.35 20.72 9.17 20.72 7.70C20.72 6.23 20.27 5.05 19.36 4.15C18.45 3.25 17.24 2.80 15.75 2.80ZM14 4.20L15.75 4.20C16.80 4.20 17.64 4.50 18.26 5.11C18.87 5.72 19.18 6.58 19.18 7.70C19.18 8.82 18.87 9.68 18.26 10.29C17.64 10.90 16.80 11.20 15.75 11.20L14 11.20ZM26.64 8.69L23.09 8.69C23.15 8.26 23.36 7.92 23.72 7.66C24.08 7.41 24.50 7.28 24.96 7.28C25.95 7.28 26.51 7.75 26.64 8.69ZM23.06 9.73L28.18 9.73C28.20 9.61 28.21 9.45 28.21 9.25C28.21 8.25 27.92 7.45 27.33 6.88C26.74 6.31 25.95 6.02 24.96 6.02C23.95 6.02 23.14 6.33 22.50 6.96C21.88 7.59 21.56 8.40 21.56 9.38C21.56 10.38 21.86 11.19 22.46 11.81C23.07 12.43 23.90 12.74 24.96 12.74C26.37 12.74 27.40 12.24 28.06 11.24L26.95 10.56C26.60 11.13 25.93 11.41 24.96 11.41C24.45 11.41 24.02 11.27 23.67 10.98C23.33 10.69 23.12 10.27 23.06 9.73ZM28.56 6.16L31.85 12.95L35.14 6.16L33.53 6.16L31.85 10.00L30.17 6.16Z"></path></g><!----><!----></svg>